<svg width="640" height="640" viewBox="0 0 640 640" fill="none" xmlns="http://www.w3.org/2000/svg">
  <defs>
    <linearGradient id="paper" x1="98" y1="60" x2="550" y2="594" gradientUnits="userSpaceOnUse">
      <stop stop-color="#F9F1DE"/>
      <stop offset="1" stop-color="#E8DCC2"/>
    </linearGradient>
  </defs>
  <rect width="640" height="640" rx="54" fill="#10243A"/>
  <rect x="84" y="56" width="472" height="530" rx="26" fill="url(#paper)"/>
  <path d="M126 140H514" stroke="#C8B89A" stroke-width="4"/>
  <path d="M126 208H514" stroke="#C8B89A" stroke-width="4"/>
  <path d="M126 276H514" stroke="#C8B89A" stroke-width="4"/>
  <path d="M126 344H514" stroke="#C8B89A" stroke-width="4"/>
  <path d="M126 412H514" stroke="#C8B89A" stroke-width="4"/>
  <path d="M126 480H514" stroke="#C8B89A" stroke-width="4"/>
  <path d="M172 92V548" stroke="#E3705B" stroke-width="5"/>
  <text x="320" y="133" text-anchor="middle" fill="#12345A" font-size="54" font-family="Arial Black, Impact, sans-serif">CALCULUS BC</text>
  <text x="220" y="225" fill="#12345A" font-size="36" font-family="Courier New, monospace">d/dx sin(x) = cos(x)</text>
  <text x="220" y="296" fill="#12345A" font-size="36" font-family="Courier New, monospace">∫ x² dx = x³/3 + C</text>
  <text x="220" y="366" fill="#12345A" font-size="36" font-family="Courier New, monospace">lim (sin x)/x = 1</text>
  <path d="M228 514C291 449 327 430 368 437C415 445 442 480 471 516" stroke="#1C5EA7" stroke-width="10" stroke-linecap="round"/>
  <path d="M220 519H490" stroke="#12345A" stroke-width="5"/>
  <path d="M234 522C263 517 283 503 305 474C326 446 347 428 370 427C399 426 424 450 445 481C456 497 467 510 490 518" stroke="#F09A2B" stroke-width="8" stroke-linecap="round"/>
  <circle cx="541" cy="109" r="38" fill="#6EC6FF"/>
  <text x="541" y="121" text-anchor="middle" fill="#10243A" font-size="30" font-family="Arial Black, Impact, sans-serif">BC</text>
</svg>
