<svg width="640" height="640" viewBox="0 0 640 640" fill="none" xmlns="http://www.w3.org/2000/svg">
  <defs>
    <linearGradient id="bg" x1="82" y1="76" x2="574" y2="578" gradientUnits="userSpaceOnUse">
      <stop stop-color="#501316"/>
      <stop offset="1" stop-color="#1F090B"/>
    </linearGradient>
    <linearGradient id="can" x1="214" y1="99" x2="430" y2="544" gradientUnits="userSpaceOnUse">
      <stop stop-color="#9D1D24"/>
      <stop offset="1" stop-color="#5B0E13"/>
    </linearGradient>
    <linearGradient id="shine" x1="245" y1="129" x2="316" y2="508" gradientUnits="userSpaceOnUse">
      <stop stop-color="white" stop-opacity="0.45"/>
      <stop offset="1" stop-color="white" stop-opacity="0"/>
    </linearGradient>
  </defs>
  <rect width="640" height="640" rx="54" fill="url(#bg)"/>
  <circle cx="120" cy="126" r="52" fill="#F5BE55" fill-opacity="0.9"/>
  <circle cx="529" cy="486" r="72" fill="#8F2728" fill-opacity="0.45"/>
  <ellipse cx="319" cy="118" rx="124" ry="37" fill="#C8CDD2"/>
  <rect x="194" y="118" width="250" height="398" rx="36" fill="url(#can)"/>
  <ellipse cx="319" cy="516" rx="125" ry="37" fill="#4A0A0F"/>
  <ellipse cx="319" cy="118" rx="103" ry="24" fill="#E8EDF0"/>
  <rect x="228" y="132" width="64" height="364" rx="32" fill="url(#shine)"/>
  <ellipse cx="319" cy="315" rx="112" ry="88" fill="#6F0E16"/>
  <path d="M249 295C264 260 294 244 332 244C387 244 423 277 423 320C423 362 385 393 334 393H276V295H249ZM329 359C359 359 378 344 378 319C378 294 359 279 329 279H312V359H329Z" fill="#F5F0E7"/>
  <path d="M261 432C318 398 366 406 396 427" stroke="#F5BE55" stroke-width="16" stroke-linecap="round"/>
  <text x="319" y="190" text-anchor="middle" fill="#F5F0E7" font-size="42" font-family="Arial Black, Impact, sans-serif" letter-spacing="2">DR PEPPER</text>
</svg>
